<mxfile host="app.diagrams.net" modified="2021-11-22T23:53:16.194Z" agent="5.0 (Windows NT 10.0; Win64; x64) AppleWebKit/537.36 (KHTML, like Gecko) Chrome/96.0.4664.45 Safari/537.36" etag="7i-pg-_zqYnP-2v3f-dL" version="15.6.8" type="github">
  <diagram id="i9-LiDUgm7i1TcscAGTR" name="Page-1">
    <mxGraphModel dx="827" dy="1095" grid="1" gridSize="10" guides="1" tooltips="1" connect="1" arrows="1" fold="1" page="1" pageScale="1" pageWidth="850" pageHeight="1100" math="0" shadow="0">
      <root>
        <mxCell id="0" />
        <mxCell id="1" parent="0" />
        <mxCell id="Mf5WhwWusuU8PSzTyUXS-1" value="" style="rounded=0;whiteSpace=wrap;html=1;" vertex="1" parent="1">
          <mxGeometry x="10" y="10" width="830" height="610" as="geometry" />
        </mxCell>
        <mxCell id="Mf5WhwWusuU8PSzTyUXS-2" value="" style="rounded=0;whiteSpace=wrap;html=1;" vertex="1" parent="1">
          <mxGeometry x="20" y="580" width="810" height="10" as="geometry" />
        </mxCell>
        <mxCell id="Mf5WhwWusuU8PSzTyUXS-3" value="" style="rounded=0;whiteSpace=wrap;html=1;" vertex="1" parent="1">
          <mxGeometry x="20" y="510" width="370" height="10" as="geometry" />
        </mxCell>
        <mxCell id="Mf5WhwWusuU8PSzTyUXS-4" value="" style="rounded=0;whiteSpace=wrap;html=1;" vertex="1" parent="1">
          <mxGeometry x="450" y="510" width="380" height="10" as="geometry" />
        </mxCell>
        <mxCell id="Mf5WhwWusuU8PSzTyUXS-5" value="" style="rounded=0;whiteSpace=wrap;html=1;" vertex="1" parent="1">
          <mxGeometry x="400" y="210" width="40" height="330" as="geometry" />
        </mxCell>
        <mxCell id="Mf5WhwWusuU8PSzTyUXS-6" value="" style="rounded=0;whiteSpace=wrap;html=1;" vertex="1" parent="1">
          <mxGeometry x="30" y="180" width="800" height="20" as="geometry" />
        </mxCell>
        <mxCell id="Mf5WhwWusuU8PSzTyUXS-7" value="" style="rounded=0;whiteSpace=wrap;html=1;" vertex="1" parent="1">
          <mxGeometry x="30" y="140" width="120" height="60" as="geometry" />
        </mxCell>
        <mxCell id="Mf5WhwWusuU8PSzTyUXS-8" value="" style="rounded=0;whiteSpace=wrap;html=1;" vertex="1" parent="1">
          <mxGeometry x="710" y="140" width="120" height="60" as="geometry" />
        </mxCell>
        <mxCell id="Mf5WhwWusuU8PSzTyUXS-9" value="" style="rounded=0;whiteSpace=wrap;html=1;" vertex="1" parent="1">
          <mxGeometry x="360" y="150" width="120" height="50" as="geometry" />
        </mxCell>
        <mxCell id="Mf5WhwWusuU8PSzTyUXS-10" value="" style="rounded=0;whiteSpace=wrap;html=1;" vertex="1" parent="1">
          <mxGeometry x="680" y="50" width="120" height="30" as="geometry" />
        </mxCell>
        <mxCell id="Mf5WhwWusuU8PSzTyUXS-11" value="" style="rounded=0;whiteSpace=wrap;html=1;" vertex="1" parent="1">
          <mxGeometry x="60" y="50" width="120" height="30" as="geometry" />
        </mxCell>
        <mxCell id="Mf5WhwWusuU8PSzTyUXS-12" value="" style="rounded=0;whiteSpace=wrap;html=1;" vertex="1" parent="1">
          <mxGeometry x="360" y="70" width="120" height="30" as="geometry" />
        </mxCell>
        <mxCell id="Mf5WhwWusuU8PSzTyUXS-13" value="" style="rounded=0;whiteSpace=wrap;html=1;" vertex="1" parent="1">
          <mxGeometry x="500" y="400" width="255" height="10" as="geometry" />
        </mxCell>
        <mxCell id="Mf5WhwWusuU8PSzTyUXS-14" value="" style="rounded=0;whiteSpace=wrap;html=1;" vertex="1" parent="1">
          <mxGeometry x="450" y="280" width="370" height="10" as="geometry" />
        </mxCell>
        <mxCell id="Mf5WhwWusuU8PSzTyUXS-15" value="" style="rounded=0;whiteSpace=wrap;html=1;" vertex="1" parent="1">
          <mxGeometry x="75" y="400" width="260" height="10" as="geometry" />
        </mxCell>
        <mxCell id="Mf5WhwWusuU8PSzTyUXS-17" value="" style="rounded=0;whiteSpace=wrap;html=1;" vertex="1" parent="1">
          <mxGeometry x="30" y="280" width="360" height="10" as="geometry" />
        </mxCell>
        <mxCell id="Mf5WhwWusuU8PSzTyUXS-19" value="" style="ellipse;whiteSpace=wrap;html=1;" vertex="1" parent="1">
          <mxGeometry x="45" y="250" width="15" height="30" as="geometry" />
        </mxCell>
        <mxCell id="Mf5WhwWusuU8PSzTyUXS-20" value="" style="ellipse;whiteSpace=wrap;html=1;" vertex="1" parent="1">
          <mxGeometry x="82.5" y="370" width="15" height="30" as="geometry" />
        </mxCell>
        <mxCell id="Mf5WhwWusuU8PSzTyUXS-21" value="" style="ellipse;whiteSpace=wrap;html=1;" vertex="1" parent="1">
          <mxGeometry x="30" y="480" width="15" height="30" as="geometry" />
        </mxCell>
        <mxCell id="Mf5WhwWusuU8PSzTyUXS-23" value="" style="ellipse;whiteSpace=wrap;html=1;" vertex="1" parent="1">
          <mxGeometry x="790" y="250" width="15" height="30" as="geometry" />
        </mxCell>
        <mxCell id="Mf5WhwWusuU8PSzTyUXS-24" value="" style="ellipse;whiteSpace=wrap;html=1;" vertex="1" parent="1">
          <mxGeometry x="732.5" y="370" width="15" height="30" as="geometry" />
        </mxCell>
        <mxCell id="Mf5WhwWusuU8PSzTyUXS-26" value="" style="ellipse;whiteSpace=wrap;html=1;" vertex="1" parent="1">
          <mxGeometry x="805" y="480" width="15" height="30" as="geometry" />
        </mxCell>
        <mxCell id="Mf5WhwWusuU8PSzTyUXS-29" value="" style="ellipse;whiteSpace=wrap;html=1;" vertex="1" parent="1">
          <mxGeometry x="82.5" y="110" width="15" height="30" as="geometry" />
        </mxCell>
        <mxCell id="Mf5WhwWusuU8PSzTyUXS-30" value="" style="ellipse;whiteSpace=wrap;html=1;" vertex="1" parent="1">
          <mxGeometry x="412.5" y="120" width="15" height="30" as="geometry" />
        </mxCell>
        <mxCell id="Mf5WhwWusuU8PSzTyUXS-31" value="" style="ellipse;whiteSpace=wrap;html=1;" vertex="1" parent="1">
          <mxGeometry x="412.5" y="550" width="15" height="30" as="geometry" />
        </mxCell>
        <mxCell id="Mf5WhwWusuU8PSzTyUXS-32" value="" style="ellipse;whiteSpace=wrap;html=1;" vertex="1" parent="1">
          <mxGeometry x="762.5" y="110" width="15" height="30" as="geometry" />
        </mxCell>
        <mxCell id="Mf5WhwWusuU8PSzTyUXS-33" value="" style="ellipse;whiteSpace=wrap;html=1;" vertex="1" parent="1">
          <mxGeometry x="785" y="550" width="15" height="30" as="geometry" />
        </mxCell>
        <mxCell id="Mf5WhwWusuU8PSzTyUXS-34" value="" style="ellipse;whiteSpace=wrap;html=1;" vertex="1" parent="1">
          <mxGeometry x="450" y="40" width="15" height="30" as="geometry" />
        </mxCell>
        <mxCell id="Mf5WhwWusuU8PSzTyUXS-35" value="" style="ellipse;whiteSpace=wrap;html=1;" vertex="1" parent="1">
          <mxGeometry x="112.5" y="20" width="15" height="30" as="geometry" />
        </mxCell>
        <mxCell id="Mf5WhwWusuU8PSzTyUXS-36" value="" style="ellipse;whiteSpace=wrap;html=1;" vertex="1" parent="1">
          <mxGeometry x="732.5" y="20" width="15" height="30" as="geometry" />
        </mxCell>
        <mxCell id="Mf5WhwWusuU8PSzTyUXS-37" value="" style="ellipse;whiteSpace=wrap;html=1;" vertex="1" parent="1">
          <mxGeometry x="45" y="550" width="15" height="30" as="geometry" />
        </mxCell>
        <mxCell id="Mf5WhwWusuU8PSzTyUXS-38" value="" style="ellipse;whiteSpace=wrap;html=1;" vertex="1" parent="1">
          <mxGeometry x="290" y="370" width="15" height="30" as="geometry" />
        </mxCell>
        <mxCell id="Mf5WhwWusuU8PSzTyUXS-39" value="" style="ellipse;whiteSpace=wrap;html=1;" vertex="1" parent="1">
          <mxGeometry x="375" y="40" width="15" height="30" as="geometry" />
        </mxCell>
        <mxCell id="Mf5WhwWusuU8PSzTyUXS-41" value="" style="ellipse;whiteSpace=wrap;html=1;" vertex="1" parent="1">
          <mxGeometry x="335" y="480" width="15" height="30" as="geometry" />
        </mxCell>
        <mxCell id="Mf5WhwWusuU8PSzTyUXS-42" value="" style="ellipse;whiteSpace=wrap;html=1;" vertex="1" parent="1">
          <mxGeometry x="465" y="250" width="15" height="30" as="geometry" />
        </mxCell>
        <mxCell id="Mf5WhwWusuU8PSzTyUXS-43" value="" style="ellipse;whiteSpace=wrap;html=1;" vertex="1" parent="1">
          <mxGeometry x="530" y="370" width="15" height="30" as="geometry" />
        </mxCell>
        <mxCell id="Mf5WhwWusuU8PSzTyUXS-44" value="" style="ellipse;whiteSpace=wrap;html=1;" vertex="1" parent="1">
          <mxGeometry x="485" y="480" width="15" height="30" as="geometry" />
        </mxCell>
        <mxCell id="Mf5WhwWusuU8PSzTyUXS-46" value="Actor" style="shape=umlActor;verticalLabelPosition=bottom;verticalAlign=top;html=1;outlineConnect=0;" vertex="1" parent="1">
          <mxGeometry x="415" y="550" width="10" height="30" as="geometry" />
        </mxCell>
        <mxCell id="Mf5WhwWusuU8PSzTyUXS-47" value="" style="ellipse;whiteSpace=wrap;html=1;" vertex="1" parent="1">
          <mxGeometry x="627.5" y="480" width="15" height="30" as="geometry" />
        </mxCell>
        <mxCell id="Mf5WhwWusuU8PSzTyUXS-48" value="" style="ellipse;whiteSpace=wrap;html=1;" vertex="1" parent="1">
          <mxGeometry x="250" y="150" width="15" height="30" as="geometry" />
        </mxCell>
        <mxCell id="Mf5WhwWusuU8PSzTyUXS-49" value="" style="ellipse;whiteSpace=wrap;html=1;" vertex="1" parent="1">
          <mxGeometry x="590" y="150" width="15" height="30" as="geometry" />
        </mxCell>
        <mxCell id="Mf5WhwWusuU8PSzTyUXS-50" value="" style="ellipse;whiteSpace=wrap;html=1;" vertex="1" parent="1">
          <mxGeometry x="360" y="250" width="15" height="30" as="geometry" />
        </mxCell>
        <mxCell id="Mf5WhwWusuU8PSzTyUXS-52" value="" style="ellipse;whiteSpace=wrap;html=1;" vertex="1" parent="1">
          <mxGeometry x="180" y="480" width="15" height="30" as="geometry" />
        </mxCell>
        <mxCell id="Mf5WhwWusuU8PSzTyUXS-60" value="" style="verticalLabelPosition=bottom;verticalAlign=top;html=1;shape=mxgraph.basic.4_point_star_2;dx=0.8;" vertex="1" parent="1">
          <mxGeometry x="180" y="160" width="20" height="20" as="geometry" />
        </mxCell>
        <mxCell id="Mf5WhwWusuU8PSzTyUXS-61" value="" style="verticalLabelPosition=bottom;verticalAlign=top;html=1;shape=mxgraph.basic.4_point_star_2;dx=0.8;" vertex="1" parent="1">
          <mxGeometry x="175" y="555" width="20" height="20" as="geometry" />
        </mxCell>
        <mxCell id="Mf5WhwWusuU8PSzTyUXS-63" value="" style="verticalLabelPosition=bottom;verticalAlign=top;html=1;shape=mxgraph.basic.4_point_star_2;dx=0.8;" vertex="1" parent="1">
          <mxGeometry x="622.5" y="555" width="20" height="20" as="geometry" />
        </mxCell>
        <mxCell id="Mf5WhwWusuU8PSzTyUXS-65" value="" style="verticalLabelPosition=bottom;verticalAlign=top;html=1;shape=mxgraph.basic.4_point_star_2;dx=0.8;" vertex="1" parent="1">
          <mxGeometry x="657.5" y="160" width="20" height="20" as="geometry" />
        </mxCell>
        <mxCell id="Mf5WhwWusuU8PSzTyUXS-66" value="" style="verticalLabelPosition=bottom;verticalAlign=top;html=1;shape=mxgraph.basic.4_point_star_2;dx=0.8;" vertex="1" parent="1">
          <mxGeometry x="177.5" y="255" width="20" height="20" as="geometry" />
        </mxCell>
        <mxCell id="Mf5WhwWusuU8PSzTyUXS-67" value="" style="verticalLabelPosition=bottom;verticalAlign=top;html=1;shape=mxgraph.basic.4_point_star_2;dx=0.8;" vertex="1" parent="1">
          <mxGeometry x="625" y="255" width="20" height="20" as="geometry" />
        </mxCell>
        <mxCell id="Mf5WhwWusuU8PSzTyUXS-68" value="" style="verticalLabelPosition=bottom;verticalAlign=top;html=1;shape=mxgraph.basic.4_point_star_2;dx=0.8;" vertex="1" parent="1">
          <mxGeometry x="180" y="375" width="20" height="20" as="geometry" />
        </mxCell>
        <mxCell id="Mf5WhwWusuU8PSzTyUXS-69" value="" style="verticalLabelPosition=bottom;verticalAlign=top;html=1;shape=mxgraph.basic.4_point_star_2;dx=0.8;" vertex="1" parent="1">
          <mxGeometry x="622.5" y="375" width="20" height="20" as="geometry" />
        </mxCell>
        <mxCell id="Mf5WhwWusuU8PSzTyUXS-70" value="" style="verticalLabelPosition=bottom;verticalAlign=top;html=1;shape=mxgraph.basic.4_point_star_2;dx=0.8;" vertex="1" parent="1">
          <mxGeometry x="720" y="120" width="20" height="20" as="geometry" />
        </mxCell>
        <mxCell id="Mf5WhwWusuU8PSzTyUXS-71" value="" style="verticalLabelPosition=bottom;verticalAlign=top;html=1;shape=mxgraph.basic.4_point_star_2;dx=0.8;" vertex="1" parent="1">
          <mxGeometry x="447.5" y="130" width="20" height="20" as="geometry" />
        </mxCell>
        <mxCell id="Mf5WhwWusuU8PSzTyUXS-72" value="" style="verticalLabelPosition=bottom;verticalAlign=top;html=1;shape=mxgraph.basic.4_point_star_2;dx=0.8;" vertex="1" parent="1">
          <mxGeometry x="150" y="30" width="20" height="20" as="geometry" />
        </mxCell>
        <mxCell id="Mf5WhwWusuU8PSzTyUXS-73" value="" style="verticalLabelPosition=bottom;verticalAlign=top;html=1;shape=mxgraph.basic.4_point_star_2;dx=0.8;" vertex="1" parent="1">
          <mxGeometry x="690" y="30" width="20" height="20" as="geometry" />
        </mxCell>
        <mxCell id="Mf5WhwWusuU8PSzTyUXS-74" value="Start Here" style="rounded=0;whiteSpace=wrap;html=1;" vertex="1" parent="1">
          <mxGeometry x="380" y="520" width="80" height="20" as="geometry" />
        </mxCell>
        <mxCell id="Mf5WhwWusuU8PSzTyUXS-75" value="End Here" style="rounded=0;whiteSpace=wrap;html=1;" vertex="1" parent="1">
          <mxGeometry x="415" y="20" width="80" height="20" as="geometry" />
        </mxCell>
      </root>
    </mxGraphModel>
  </diagram>
</mxfile>
